<?xml version="1.0" standalone="no"?>
<!DOCTYPE svg PUBLIC "-//W3C//DTD SVG 20010904//EN"
 "http://www.w3.org/TR/2001/REC-SVG-20010904/DTD/svg10.dtd">
<svg version="1.0" xmlns="http://www.w3.org/2000/svg"
 width="2000.000000pt" height="2000.000000pt" viewBox="0 0 2000.000000 2000.000000"
 preserveAspectRatio="xMidYMid meet">
<metadata>
Created by potrace 1.11, written by Peter Selinger 2001-2013
</metadata>
<g transform="translate(0.000000,2000.000000) scale(0.100000,-0.100000)"
fill="#000000" stroke="none">
<path d="M8615 19985 c-185 -50 -308 -139 -401 -293 -43 -71 -70 -145 -82
-227 -9 -61 -8 -1407 2 -1453 15 -76 59 -178 104 -245 101 -149 312 -264 489
-267 l23 0 2 -362 c2 -235 7 -362 13 -361 62 9 106 15 290 38 22 3 67 8 100
11 33 3 71 7 84 9 13 2 67 7 120 10 53 4 107 8 120 10 141 22 856 22 1041 0
19 -2 71 -7 115 -9 44 -3 96 -8 115 -10 19 -3 64 -7 100 -10 36 -4 74 -8 85
-10 11 -2 52 -7 90 -10 39 -4 77 -9 85 -11 8 -2 37 -6 64 -10 27 -3 54 -7 60
-8 8 -1 12 102 14 361 l2 362 33 1 c145 4 289 70 408 188 60 60 85 94 117 161
68 144 66 119 66 900 0 778 2 757 -64 895 -84 174 -241 300 -425 340 -89 20
-2697 20 -2770 0z"/>
<path d="M5475 17719 c-129 -12 -133 -14 -700 -341 -717 -413 -695 -399 -759
-466 -128 -134 -182 -273 -179 -462 2 -94 34 -210 81 -292 53 -92 197 -343
223 -388 64 -109 244 -420 343 -592 l108 -187 82 63 c228 177 570 410 836 570
80 47 152 91 160 96 8 6 22 13 30 17 8 3 65 34 125 68 162 92 534 273 740 360
99 43 182 79 184 80 2 2 -25 53 -59 112 -34 59 -74 128 -88 153 -13 25 -40 72
-60 105 -19 33 -42 74 -52 90 -9 17 -51 89 -92 160 -93 159 -89 153 -217 376
-57 100 -120 203 -138 228 -132 177 -346 272 -568 250z"/>
<path d="M14447 17724 c-1 -1 -29 -4 -62 -7 -128 -12 -259 -74 -353 -168 -85
-84 -74 -67 -188 -265 -53 -93 -138 -239 -187 -324 -49 -85 -99 -171 -109
-190 -11 -19 -80 -139 -154 -266 -73 -127 -136 -237 -139 -245 -4 -11 45 -36
192 -99 187 -80 564 -262 718 -348 59 -33 152 -86 350 -201 154 -90 581 -379
715 -484 9 -7 52 -40 97 -74 l81 -62 350 607 c255 442 358 629 377 686 72 216
12 460 -154 626 -71 71 -124 106 -326 220 -86 48 -642 369 -747 431 -64 38
-119 69 -123 69 -4 0 -19 8 -33 19 -40 27 -147 60 -230 69 -40 5 -73 8 -75 6z"/>
<path d="M9649 16245 c-2 -2 -60 -6 -129 -10 -69 -3 -143 -8 -165 -10 -22 -2
-69 -7 -105 -10 -36 -3 -90 -8 -120 -11 -54 -5 -110 -11 -160 -19 -14 -2 -50
-6 -80 -10 -30 -3 -77 -10 -105 -15 -27 -5 -68 -12 -90 -15 -39 -5 -241 -41
-280 -49 -11 -2 -65 -14 -120 -25 -55 -11 -163 -36 -240 -56 -77 -19 -149 -38
-160 -40 -260 -61 -917 -294 -1205 -428 -41 -19 -97 -45 -125 -57 -125 -56
-397 -196 -550 -283 -88 -50 -387 -229 -400 -240 -5 -4 -82 -56 -170 -115 -88
-59 -205 -141 -260 -181 -90 -67 -322 -248 -335 -261 -3 -3 -45 -39 -95 -80
-49 -41 -95 -79 -101 -85 -6 -5 -49 -44 -95 -85 -46 -41 -183 -173 -304 -295
-220 -219 -306 -312 -438 -470 -23 -27 -56 -65 -72 -85 -54 -63 -150 -183
-196 -245 -24 -33 -47 -62 -50 -65 -33 -29 -337 -478 -457 -677 -140 -231
-341 -613 -442 -838 -44 -97 -93 -211 -126 -295 -19 -47 -38 -94 -43 -105
-138 -316 -361 -1103 -426 -1505 -3 -19 -7 -46 -10 -60 -3 -14 -7 -41 -10 -60
-3 -19 -10 -60 -15 -90 -5 -30 -12 -77 -15 -105 -4 -27 -8 -62 -11 -76 -4 -26
-8 -63 -20 -164 -3 -27 -7 -63 -9 -80 -2 -16 -6 -73 -10 -125 -4 -52 -8 -111
-10 -130 -23 -222 -23 -924 0 -1130 2 -19 7 -80 10 -134 4 -55 8 -107 10 -115
2 -9 6 -45 9 -81 4 -36 9 -76 11 -90 2 -14 7 -50 10 -80 5 -49 51 -345 61
-395 2 -11 7 -33 10 -50 5 -28 51 -252 59 -285 2 -8 11 -49 20 -90 60 -265
167 -617 282 -930 75 -204 106 -280 221 -540 27 -63 171 -352 225 -455 163
-306 332 -582 525 -855 288 -406 550 -718 897 -1065 249 -250 351 -343 630
-573 93 -77 138 -112 263 -206 247 -186 668 -460 882 -574 36 -19 72 -40 80
-47 26 -21 560 -280 690 -335 69 -29 140 -59 158 -67 319 -139 995 -344 1392
-422 220 -44 334 -64 455 -81 39 -5 81 -12 95 -14 37 -6 107 -15 175 -21 33
-4 71 -8 85 -10 14 -3 59 -7 100 -10 41 -4 91 -8 110 -10 257 -26 1051 -26
1280 0 19 2 73 6 120 10 47 3 92 8 100 10 8 2 44 7 80 10 36 4 77 8 91 11 27
4 59 8 144 19 28 3 76 11 107 16 32 6 70 12 85 15 16 2 44 7 63 11 57 10 62
11 130 24 36 6 101 20 145 30 45 10 92 20 105 22 14 3 54 13 90 22 36 9 74 19
85 21 42 8 65 14 215 57 257 74 555 170 635 206 11 5 90 36 175 69 389 150
885 401 1287 651 220 136 615 416 783 555 25 21 54 45 65 53 28 23 149 126
219 187 272 235 635 609 868 890 54 67 107 130 117 141 74 86 296 391 418 575
45 69 86 130 91 135 7 9 155 253 177 292 15 28 134 244 156 283 25 47 171 343
197 400 11 25 32 72 47 105 41 92 165 397 165 407 0 4 9 27 19 51 20 42 130
370 170 502 57 192 157 593 176 705 3 19 12 69 20 110 8 41 17 91 20 110 3 19
10 60 15 90 5 30 17 107 25 170 9 63 17 129 20 145 9 65 17 146 31 315 3 41 8
91 9 110 23 256 23 894 0 1136 -2 21 -6 77 -10 124 -8 108 -12 146 -40 365 -8
66 -17 131 -19 145 -2 14 -8 48 -12 75 -4 28 -8 57 -10 65 -6 34 -18 106 -19
115 -1 6 -4 24 -8 40 -4 17 -9 44 -12 60 -2 17 -23 111 -45 210 -23 99 -43
188 -45 197 -11 48 -69 263 -92 338 -286 949 -713 1797 -1292 2567 -129 171
-219 285 -304 383 -12 14 -49 56 -82 95 -109 126 -177 198 -380 400 -233 232
-315 308 -505 469 -306 259 -764 582 -1130 797 -161 95 -640 342 -770 398 -65
28 -133 58 -175 76 -51 23 -156 65 -255 101 -52 19 -104 39 -115 44 -53 25
-378 130 -555 180 -205 58 -579 147 -695 166 -21 3 -47 8 -59 10 -66 13 -325
54 -406 64 -52 6 -106 13 -119 15 -13 3 -61 7 -105 11 -45 3 -88 8 -97 9 -9 2
-61 7 -115 10 -55 4 -119 9 -144 12 -55 5 -837 13 -841 8z m806 -1259 c63 -6
189 -17 235 -21 57 -5 274 -31 330 -40 85 -14 257 -43 290 -50 14 -3 39 -8 55
-11 17 -3 50 -10 75 -15 25 -6 53 -12 63 -14 61 -13 283 -69 356 -91 47 -14
93 -27 101 -29 97 -23 549 -183 675 -240 17 -7 80 -34 140 -60 111 -48 424
-204 545 -271 191 -106 646 -393 670 -423 3 -3 28 -22 55 -41 28 -19 55 -38
60 -42 117 -91 272 -214 293 -232 316 -272 641 -592 808 -796 16 -19 33 -40
39 -46 143 -156 528 -688 629 -869 9 -16 26 -46 38 -65 171 -276 388 -728 525
-1090 110 -293 270 -847 298 -1035 3 -16 7 -41 10 -55 8 -37 24 -120 30 -160
3 -19 7 -46 10 -60 13 -68 32 -206 40 -281 3 -30 8 -67 10 -84 2 -16 7 -64 10
-105 4 -41 8 -93 10 -115 23 -219 23 -757 0 -1035 -1 -19 -5 -73 -9 -120 -4
-47 -9 -96 -11 -110 -2 -14 -7 -47 -10 -75 -3 -27 -10 -86 -16 -130 -7 -44
-13 -89 -14 -100 -2 -11 -10 -63 -20 -115 -9 -52 -19 -108 -22 -125 -2 -16
-14 -70 -25 -120 -11 -49 -22 -101 -24 -115 -24 -127 -127 -488 -199 -700 -51
-147 -157 -420 -203 -521 -16 -35 -39 -86 -52 -114 -45 -103 -189 -384 -255
-500 -236 -416 -536 -840 -830 -1171 -5 -6 -39 -44 -75 -85 -85 -96 -339 -349
-470 -470 -106 -96 -362 -311 -435 -365 -11 -8 -58 -43 -105 -77 -222 -165
-351 -249 -750 -485 -82 -48 -506 -256 -640 -313 -293 -124 -769 -286 -985
-335 -5 -1 -68 -16 -140 -32 -132 -31 -256 -58 -310 -67 -52 -9 -208 -34 -250
-40 -22 -4 -51 -8 -65 -10 -14 -2 -52 -7 -85 -10 -33 -4 -67 -8 -75 -10 -8 -3
-51 -7 -95 -10 -44 -3 -91 -7 -105 -10 -113 -19 -779 -27 -995 -12 -196 14
-229 17 -265 21 -19 3 -64 8 -100 11 -36 4 -76 8 -90 10 -14 2 -45 7 -70 10
-25 3 -83 12 -130 20 -47 8 -98 16 -115 18 -16 3 -41 8 -55 11 -14 3 -38 7
-55 10 -16 2 -41 6 -55 10 -14 3 -78 17 -142 31 -65 14 -123 28 -130 30 -7 2
-24 7 -38 9 -163 31 -722 213 -925 300 -355 154 -744 345 -847 417 -14 11 -28
19 -31 19 -4 0 -58 32 -172 103 -56 35 -323 213 -345 229 -14 11 -57 43 -97
72 -326 238 -700 574 -992 891 -92 100 -308 357 -366 435 -23 33 -50 67 -59
75 -9 9 -16 20 -16 24 0 4 -8 16 -19 27 -31 34 -214 301 -303 444 -113 180
-213 359 -308 549 -85 170 -128 261 -194 414 -9 20 -22 52 -30 70 -96 220
-290 827 -323 1006 -2 13 -6 28 -8 31 -2 4 -7 20 -9 36 -3 16 -8 38 -10 49
-26 117 -68 342 -80 430 -9 61 -18 124 -21 140 -2 17 -7 57 -10 90 -3 33 -8
71 -10 85 -5 33 -17 155 -20 205 -20 308 -24 586 -12 850 8 177 15 262 32 420
3 22 7 60 9 85 3 25 15 108 27 185 11 77 22 149 24 160 2 18 29 163 39 210 65
309 135 565 236 858 44 129 132 361 160 422 5 11 38 85 74 165 67 150 189 392
259 515 22 39 51 90 65 115 85 151 243 392 385 589 81 112 250 329 266 341 3
3 28 32 56 65 126 153 418 457 595 620 153 141 355 307 545 448 72 53 135 100
140 105 12 10 244 163 340 224 290 184 719 400 1094 549 280 112 743 257 971
304 224 46 329 67 356 71 18 2 53 8 76 13 24 5 68 12 98 16 30 3 62 8 70 10 8
2 44 7 80 10 36 4 72 8 80 10 8 2 53 6 100 10 47 4 94 9 104 11 11 2 78 6 150
10 72 3 132 8 134 9 5 5 700 -4 757 -9z"/>
<path d="M9993 13728 c-1 -7 -6 -33 -11 -58 -6 -25 -15 -67 -21 -95 -6 -27
-13 -59 -15 -70 -3 -11 -17 -74 -31 -140 -14 -66 -30 -136 -35 -155 -5 -19
-12 -51 -15 -70 -3 -19 -10 -51 -15 -70 -13 -46 -135 -594 -146 -654 -2 -16
-6 -32 -8 -35 -2 -3 -7 -24 -10 -46 -4 -22 -9 -48 -12 -57 -3 -9 -7 -25 -9
-35 -2 -10 -11 -49 -20 -88 -25 -111 -31 -138 -39 -180 -3 -11 -46 -204 -96
-430 -50 -225 -93 -419 -96 -429 -10 -53 -107 -489 -119 -541 -21 -89 -67
-296 -71 -325 -3 -14 -7 -31 -9 -38 -3 -8 -21 -87 -41 -175 -19 -89 -44 -202
-55 -252 -11 -49 -22 -99 -24 -110 -4 -19 -41 -185 -136 -610 -22 -99 -43
-191 -45 -205 -3 -14 -9 -41 -14 -60 -5 -19 -11 -46 -14 -60 -3 -14 -7 -34
-10 -45 -29 -126 -88 -394 -90 -410 -2 -11 -6 -29 -9 -40 -37 -121 -27 -302
28 -485 55 -184 174 -381 314 -520 544 -540 1435 -469 1890 149 96 131 198
361 217 490 3 20 7 42 9 48 11 34 16 203 6 238 -5 22 -12 51 -15 65 -2 14 -14
68 -26 120 -12 52 -23 104 -26 115 -2 11 -20 92 -40 180 -19 88 -37 168 -39
177 -2 9 -90 405 -195 880 -106 474 -193 870 -195 878 -2 8 -22 98 -45 200
-23 102 -43 194 -46 205 -2 11 -20 92 -40 180 -20 88 -38 170 -40 181 -2 12
-26 120 -53 240 -27 121 -100 446 -161 723 -61 277 -113 511 -116 520 -2 9
-10 48 -19 86 -163 748 -190 859 -192 813z"/>
</g>
</svg>
